<svg xmlns="http://www.w3.org/2000/svg" viewBox="0 0 800 500" fill="none">
  <defs>
    <linearGradient id="bg" x1="0" y1="0" x2="1" y2="1"><stop offset="0" stop-color="#06101a"/><stop offset="1" stop-color="#04070c"/></linearGradient>
    <linearGradient id="ac" x1="0" y1="0" x2="1" y2="1"><stop offset="0" stop-color="#8fb9d1"/><stop offset="1" stop-color="#4a9ec4"/></linearGradient>
  </defs>
  <rect width="800" height="500" fill="url(#bg)"/>
  <g stroke="#8fb9d1" stroke-opacity="0.06"><path d="M0 100H800M0 200H800M0 300H800M0 400H800"/><path d="M100 0V500M200 0V500M300 0V500M400 0V500M500 0V500M600 0V500M700 0V500"/></g>
  <rect x="90" y="80" width="620" height="340" rx="12" fill="#0b0e16" stroke="url(#ac)" stroke-width="1.5"/>
  <text x="120" y="120" font-family="monospace" font-size="15" fill="#8fb9d1">BUG TRACKER</text>
  <line x1="90" y1="140" x2="710" y2="140" stroke="#ffffff" stroke-opacity="0.1"/>
  <g font-family="monospace" font-size="12">
    <text x="120" y="175" fill="#ffffff" fill-opacity="0.4">#ID</text><text x="200" y="175" fill="#ffffff" fill-opacity="0.4">TITLE</text><text x="480" y="175" fill="#ffffff" fill-opacity="0.4">PRIORITY</text><text x="610" y="175" fill="#ffffff" fill-opacity="0.4">STATUS</text>
  </g>
  <g font-family="monospace" font-size="13" fill="#e6e8ef">
    <text x="120" y="215">#012</text><text x="200" y="215">Null pointer on login</text>
    <text x="120" y="255">#019</text><text x="200" y="255">UI overflow · mobile</text>
    <text x="120" y="295">#024</text><text x="200" y="295">API 500 on checkout</text>
    <text x="120" y="335">#031</text><text x="200" y="335">Slow query · reports</text>
  </g>
  <g font-family="monospace" font-size="11">
    <rect x="480" y="203" width="70" height="20" rx="10" fill="#8fb9d1" fill-opacity="0.25"/><text x="492" y="217" fill="#8fb9d1">HIGH</text>
    <rect x="480" y="243" width="70" height="20" rx="10" fill="#4a9ec4" fill-opacity="0.25"/><text x="490" y="257" fill="#4a9ec4">MED</text>
    <rect x="480" y="283" width="70" height="20" rx="10" fill="#8fb9d1" fill-opacity="0.25"/><text x="492" y="297" fill="#8fb9d1">HIGH</text>
    <rect x="480" y="323" width="70" height="20" rx="10" fill="#5ba3c9" fill-opacity="0.2"/><text x="492" y="337" fill="#5ba3c9">LOW</text>
  </g>
  <g font-family="monospace" font-size="11" fill="#5ba3c9">
    <text x="610" y="217">● OPEN</text><text x="610" y="257">● WIP</text><text x="610" y="297">● OPEN</text><text x="610" y="337" fill="#4a9ec4">● DONE</text>
  </g>
  <text x="90" y="455" font-family="monospace" font-size="13" fill="#ffffff" fill-opacity="0.4">JAVA SWING · MYSQL · TEAM WORKFLOW</text>
</svg>
