<svg xmlns="http://www.w3.org/2000/svg" viewBox="0 0 1000 700" fill="none">
  <defs>
    <radialGradient id="fade" cx="50%" cy="45%" r="55%">
      <stop offset="0%" stop-color="#5ba3c9" stop-opacity="0.9"/>
      <stop offset="100%" stop-color="#5ba3c9" stop-opacity="0"/>
    </radialGradient>
    <mask id="m"><rect width="1000" height="700" fill="url(#fade)"/></mask>
  </defs>
  <g mask="url(#m)" stroke="#5ba3c9" stroke-opacity="0.5" stroke-width="1">
    <path d="M180 140 L320 90 L470 150 L610 100 L760 170 L840 120"/>
    <path d="M150 260 L300 220 L460 300 L600 240 L740 310 L860 260"/>
    <path d="M200 400 L340 360 L500 430 L640 370 L780 440 L880 400"/>
    <path d="M170 540 L330 500 L490 560 L650 510 L790 570 L850 520"/>
    <path d="M320 90 L300 220 L340 360 L330 500"/>
    <path d="M470 150 L460 300 L500 430 L490 560"/>
    <path d="M610 100 L600 240 L640 370 L650 510"/>
    <path d="M760 170 L740 310 L780 440 L790 570"/>
    <path d="M180 140 L150 260 L200 400 L170 540"/>
    <path d="M840 120 L860 260 L880 400 L850 520"/>
    <path d="M320 90 L460 300 L640 370 L790 570"/>
    <path d="M760 170 L500 430 L330 500"/>
  </g>
  <g mask="url(#m)" fill="#7ec8e3">
    <circle cx="180" cy="140" r="3"/><circle cx="320" cy="90" r="3"/><circle cx="470" cy="150" r="3"/>
    <circle cx="610" cy="100" r="3"/><circle cx="760" cy="170" r="3"/><circle cx="840" cy="120" r="3"/>
    <circle cx="150" cy="260" r="3"/><circle cx="300" cy="220" r="3"/><circle cx="460" cy="300" r="3"/>
    <circle cx="600" cy="240" r="3"/><circle cx="740" cy="310" r="3"/><circle cx="860" cy="260" r="3"/>
    <circle cx="200" cy="400" r="3"/><circle cx="340" cy="360" r="3"/><circle cx="500" cy="430" r="3"/>
    <circle cx="640" cy="370" r="3"/><circle cx="780" cy="440" r="3"/><circle cx="880" cy="400" r="3"/>
    <circle cx="170" cy="540" r="3"/><circle cx="330" cy="500" r="3"/><circle cx="490" cy="560" r="3"/>
    <circle cx="650" cy="510" r="3"/><circle cx="790" cy="570" r="3"/><circle cx="850" cy="520" r="3"/>
  </g>
</svg>
