<svg xmlns="http://www.w3.org/2000/svg" viewBox="0 0 800 500" fill="none">
  <defs>
    <linearGradient id="bg" x1="0" y1="0" x2="1" y2="1">
      <stop offset="0" stop-color="#06101a"/><stop offset="1" stop-color="#04070c"/>
    </linearGradient>
    <linearGradient id="ac" x1="0" y1="0" x2="1" y2="1">
      <stop offset="0" stop-color="#5ba3c9"/><stop offset="1" stop-color="#4a9ec4"/>
    </linearGradient>
  </defs>
  <rect width="800" height="500" fill="url(#bg)"/>
  <g stroke="#5ba3c9" stroke-opacity="0.06">
    <path d="M0 100H800M0 200H800M0 300H800M0 400H800"/>
    <path d="M100 0V500M200 0V500M300 0V500M400 0V500M500 0V500M600 0V500M700 0V500"/>
  </g>
  <rect x="120" y="90" width="200" height="320" rx="10" fill="#0b0e16" stroke="url(#ac)" stroke-width="1.5"/>
  <rect x="145" y="120" width="120" height="12" rx="6" fill="#5ba3c9" fill-opacity="0.6"/>
  <rect x="145" y="150" width="150" height="8" rx="4" fill="#ffffff" fill-opacity="0.18"/>
  <rect x="145" y="170" width="150" height="8" rx="4" fill="#ffffff" fill-opacity="0.18"/>
  <rect x="145" y="200" width="150" height="8" rx="4" fill="#ffffff" fill-opacity="0.12"/>
  <rect x="145" y="220" width="110" height="8" rx="4" fill="#ffffff" fill-opacity="0.12"/>
  <rect x="145" y="340" width="150" height="10" rx="5" fill="#4a9ec4" fill-opacity="0.7"/>
  <rect x="145" y="365" width="90" height="10" rx="5" fill="#4a9ec4" fill-opacity="0.4"/>
  <path d="M340 250h120" stroke="url(#ac)" stroke-width="2" stroke-dasharray="6 6"/>
  <path d="M452 244l14 6-14 6" stroke="#5ba3c9" stroke-width="2"/>
  <circle cx="400" cy="250" r="26" fill="#0b0e16" stroke="url(#ac)" stroke-width="1.5"/>
  <text x="400" y="256" font-family="monospace" font-size="18" fill="#5ba3c9" text-anchor="middle">AI</text>
  <rect x="480" y="150" width="200" height="200" rx="10" fill="#0b0e16" stroke="url(#ac)" stroke-width="1.5"/>
  <text x="580" y="140" font-family="monospace" font-size="12" fill="#4a9ec4" text-anchor="middle">BANK FILE</text>
  <g font-family="monospace" font-size="13" fill="#5ba3c9">
    <text x="500" y="190">$ 01001  ✓</text>
    <text x="500" y="220">$ 88420  ✓</text>
    <text x="500" y="250">$ 12750  ✓</text>
    <text x="500" y="280">$ 33019  ✓</text>
    <text x="500" y="310">$ 90210  ✓</text>
  </g>
  <text x="120" y="450" font-family="monospace" font-size="13" fill="#ffffff" fill-opacity="0.4">PDF → GEMINI → PAYMENT</text>
</svg>
